<svg width="67" height="97" viewBox="0 0 67 97" fill="none" xmlns="http://www.w3.org/2000/svg">
<path d="M33.3335 48.5C33.3335 44.4775 34.9314 40.6198 37.7757 37.7755C40.62 34.9312 44.4777 33.3333 48.5002 33.3333C52.5226 33.3333 56.3803 34.9312 59.2246 37.7755C62.0689 40.6198 63.6668 44.4775 63.6668 48.5C63.6668 52.5224 62.0689 56.3801 59.2246 59.2244C56.3803 62.0687 52.5226 63.6666 48.5002 63.6666C44.4777 63.6666 40.62 62.0687 37.7757 59.2244C34.9314 56.3801 33.3335 52.5224 33.3335 48.5V48.5Z" stroke="#5E3617" stroke-width="5.58772"/>
<path d="M3 78.8334C3 74.8109 4.59791 70.9532 7.44221 68.1089C10.2865 65.2646 14.1442 63.6667 18.1667 63.6667H33.3333V78.8334C33.3333 82.8558 31.7354 86.7135 28.8911 89.5578C26.0468 92.4021 22.1891 94 18.1667 94C14.1442 94 10.2865 92.4021 7.44221 89.5578C4.59791 86.7135 3 82.8558 3 78.8334Z" stroke="#5E3617" stroke-width="5.58772"/>
<path d="M33.3335 3V33.3333H48.5002C52.5226 33.3333 56.3803 31.7354 59.2246 28.8911C62.0689 26.0468 63.6668 22.1891 63.6668 18.1667C63.6668 14.1442 62.0689 10.2865 59.2246 7.44221C56.3803 4.59791 52.5226 3 48.5002 3L33.3335 3Z" stroke="#5E3617" stroke-width="5.58772"/>
<path d="M3 18.1667C3 22.1891 4.59791 26.0468 7.44221 28.8911C10.2865 31.7354 14.1442 33.3333 18.1667 33.3333H33.3333V3H18.1667C14.1442 3 10.2865 4.59791 7.44221 7.44221C4.59791 10.2865 3 14.1442 3 18.1667Z" stroke="#5E3617" stroke-width="5.58772"/>
<path d="M3 48.5C3 52.5224 4.59791 56.3801 7.44221 59.2244C10.2865 62.0687 14.1442 63.6666 18.1667 63.6666H33.3333V33.3333H18.1667C14.1442 33.3333 10.2865 34.9312 7.44221 37.7755C4.59791 40.6198 3 44.4775 3 48.5Z" stroke="#5E3617" stroke-width="5.58772"/>
</svg>
