<svg width="128" height="128" viewBox="0 0 128 128" fill="none" xmlns="http://www.w3.org/2000/svg">
<path fill-rule="evenodd" clip-rule="evenodd" d="M64.044 11.5554C34.5276 11.5554 10.6665 35.5924 10.6665 65.3294C10.6665 89.0998 25.9551 109.221 47.1645 116.343C49.8162 116.878 50.7876 115.185 50.7876 113.762C50.7876 112.515 50.7001 108.242 50.7001 103.79C35.8518 106.995 32.7598 97.3795 32.7598 97.3795C30.3736 91.1474 26.8379 89.5456 26.8379 89.5456C21.9781 86.2515 27.1919 86.2515 27.1919 86.2515C32.5828 86.6076 35.4115 91.7712 35.4115 91.7712C40.1829 99.9613 47.8714 97.6472 50.9646 96.2224C51.406 92.7502 52.8209 90.3465 54.3232 89.0113C42.4806 87.7647 30.0207 83.1354 30.0207 62.48C30.0207 56.604 32.1403 51.7966 35.4989 48.0577C34.969 46.7226 33.1127 41.2017 36.0299 33.8125C36.0299 33.8125 40.5369 32.3878 50.6991 39.3323C55.0498 38.1552 59.5368 37.5564 64.044 37.5514C68.5509 37.5514 73.1453 38.1753 77.3878 39.3323C87.5511 32.3878 92.058 33.8125 92.058 33.8125C94.9752 41.2017 93.1178 46.7226 92.5879 48.0577C96.035 51.7966 98.0673 56.604 98.0673 62.48C98.0673 83.1354 85.6073 87.6751 73.6762 89.0113C75.6211 90.7027 77.2993 93.9072 77.2993 98.9823C77.2993 106.193 77.2119 111.981 77.2119 113.761C77.2119 115.185 78.1843 116.878 80.8349 116.344C102.044 109.22 117.333 89.0998 117.333 65.3294C117.42 35.5924 93.4718 11.5554 64.044 11.5554Z" fill="#5E3617"/>
</svg>
