<svg width="107" height="107" viewBox="0 0 107 107" fill="none" xmlns="http://www.w3.org/2000/svg">
<path d="M6.6875 40.5708C6.6875 28.7106 6.6875 22.7804 8.99566 18.2504C11.026 14.2657 14.2657 11.026 18.2504 8.99566C22.7804 6.6875 28.7106 6.6875 40.5708 6.6875H66.4292C78.2894 6.6875 84.2196 6.6875 88.7496 8.99566C92.7343 11.026 95.974 14.2657 98.0043 18.2504C100.313 22.7804 100.312 28.7106 100.312 40.5708V66.4292C100.312 78.2894 100.313 84.2196 98.0043 88.7496C95.974 92.7343 92.7343 95.974 88.7496 98.0043C84.2196 100.313 78.2894 100.312 66.4292 100.312H40.5708C28.7106 100.312 22.7804 100.313 18.2504 98.0043C14.2657 95.974 11.026 92.7343 8.99566 88.7496C6.6875 84.2196 6.6875 78.2894 6.6875 66.4292V40.5708Z" fill="#5E3617"/>
<path d="M52.0569 65.525H37.5485L34.5966 74.9299C34.5147 75.2794 34.1929 75.5269 33.8429 75.5097H26.4945C26.0755 75.5097 25.9289 75.2735 26.0549 74.8011L38.6162 37.6968C38.7419 37.3103 38.8675 36.8702 38.9931 36.3762C39.1574 35.5168 39.2415 34.6432 39.2443 33.7674C39.2084 33.5087 39.4358 33.2801 39.684 33.3164H49.6701C49.9627 33.3164 50.1302 33.4238 50.1726 33.6386L64.4299 74.8655C64.5554 75.2953 64.4298 75.51 64.0529 75.5097H55.888C55.6016 75.5422 55.3282 75.3459 55.26 75.0588L52.0569 65.525ZM39.8095 57.4085H49.733C48.1026 51.8372 46.2626 46.3391 44.7714 40.7244C43.1624 46.3486 41.4069 51.9501 39.8095 57.4085Z" fill="#FF6F00"/>
<path d="M72.908 40.1445C72.2674 40.1709 71.6286 40.0583 71.0333 39.8141C70.4381 39.5698 69.8998 39.1995 69.4536 38.7273C69.0087 38.2346 68.6631 37.6566 68.4368 37.0264C68.2104 36.3963 68.1077 35.7265 68.1345 35.0555C68.1117 34.3912 68.2258 33.7294 68.4693 33.1133C68.7128 32.4973 69.0803 31.9408 69.5477 31.4803C70.0106 31.0246 70.5571 30.6676 71.1554 30.4299C71.7537 30.1921 72.3921 30.0785 73.0335 30.0954C74.541 30.0954 75.7238 30.557 76.5822 31.4803C77.0154 31.9602 77.3521 32.5229 77.5731 33.1364C77.794 33.7499 77.8948 34.402 77.8696 35.0555C77.8959 35.7291 77.7899 36.4013 77.5579 37.032C77.3259 37.6628 76.9727 38.2393 76.5193 38.7273C76.0454 39.2064 75.4798 39.5797 74.8583 39.8236C74.2368 40.0675 73.5727 40.1768 72.908 40.1445ZM68.5742 74.8653V44.0738C68.5742 43.6874 68.741 43.4941 69.0767 43.4941H76.802C77.1366 43.4941 77.3041 43.6873 77.3045 44.0738V74.8653C77.3045 75.2951 77.137 75.5098 76.802 75.5095H69.1395C68.7627 75.5095 68.5743 75.2947 68.5742 74.8653Z" fill="#FF6F00"/>
</svg>
