<svg width="107" height="107" viewBox="0 0 107 107" fill="none" xmlns="http://www.w3.org/2000/svg">
<path d="M6.6875 40.5708C6.6875 28.7106 6.6875 22.7804 8.99566 18.2504C11.026 14.2657 14.2657 11.026 18.2504 8.99566C22.7804 6.6875 28.7106 6.6875 40.5708 6.6875H66.4292C78.2894 6.6875 84.2196 6.6875 88.7496 8.99566C92.7343 11.026 95.974 14.2657 98.0043 18.2504C100.313 22.7804 100.312 28.7106 100.312 40.5708V66.4292C100.312 78.2894 100.313 84.2196 98.0043 88.7496C95.974 92.7343 92.7343 95.974 88.7496 98.0043C84.2196 100.313 78.2894 100.312 66.4292 100.312H40.5708C28.7106 100.312 22.7804 100.313 18.2504 98.0043C14.2657 95.974 11.026 92.7343 8.99566 88.7496C6.6875 84.2196 6.6875 78.2894 6.6875 66.4292V40.5708Z" fill="#5E3617"/>
<path d="M55.8563 75.6359H31.1105C30.6916 75.6359 30.4823 75.3997 30.4825 74.9273V34.0223C30.4361 33.6896 30.7234 33.395 31.0478 33.4426H38.7103C38.9626 33.4061 39.1849 33.6388 39.1499 33.8936V67.5194H57.1754C57.5522 67.5194 57.6987 67.7126 57.6151 68.0991L56.4846 75.0562C56.4748 75.4065 56.1873 75.6323 55.8563 75.6359Z" fill="#FF8F38"/>
<path d="M62.1431 43.5755H68.9892C69.3667 43.5789 69.7056 43.8463 69.8056 44.2197C70.3073 45.3622 70.3691 46.74 70.3709 47.9735C71.5449 46.5715 72.9607 45.4032 74.5474 44.5273C76.2493 43.5396 78.1786 43.039 80.1337 43.0779C80.4581 43.0303 80.7454 43.3249 80.699 43.6577V51.4521C80.699 51.7531 80.4889 51.903 80.071 51.903C77.1733 51.698 72.6619 52.4001 70.5563 54.7374V75.0043C70.5563 75.3908 70.3888 75.584 70.0538 75.584H62.7085C62.3476 75.6371 62.0294 75.304 62.0803 74.9398V52.9337C62.0803 49.9849 62.1426 46.9475 61.7035 44.0265C61.6359 43.7577 61.8868 43.5077 62.1431 43.5755Z" fill="#FF8F38"/>
</svg>
