<svg width="128" height="107" viewBox="0 0 128 107" fill="none" xmlns="http://www.w3.org/2000/svg">
<path d="M78.9316 78.1674C70.2629 74.7873 61.1202 73.1251 51.503 73.1818C40.1503 73.2492 29.2243 76.5044 19.9521 82.5762C18.1063 83.783 16.1323 81.4793 17.5301 79.9756C18.3196 79.1242 19.0273 78.2537 19.6533 77.3643C25.2586 69.3933 28.5746 60.4045 29.6013 50.398C31.3405 33.424 25.8633 17.2428 17.4696 2.49463C17.1246 1.8895 17.4588 0.750107 18.0778 0.346682C18.7251 -0.0753964 19.3856 -0.112207 20.0588 0.236997C33.1875 7.0686 44.909 15.5147 55.2232 25.5759C69.5137 39.5137 80.0626 56.6396 82.5344 76.5504C82.6816 77.7276 82.2191 78.4422 81.1474 78.6947C80.4574 78.8576 79.6429 78.4435 78.9316 78.1674ZM92.0341 101.953C94.2393 103.598 96.2881 103.439 98.3828 101.914C100.742 100.194 103.172 98.4274 105.674 96.6132C107.826 95.0528 110.39 94.5009 113.001 95.205C114.023 95.4833 115.206 96.1178 116.55 97.1087C118.894 98.8414 121.252 100.555 123.624 102.25C124.39 102.795 125.211 103.073 126.089 103.085C127.21 103.102 127.843 103.663 127.988 104.769C128.017 104.97 127.993 105.175 127.917 105.364C127.594 106.189 126.989 106.604 126.099 106.606C124.506 106.613 123.054 106.162 121.743 105.254C119.204 103.492 116.699 101.682 114.231 99.8227C112.264 98.3471 110.102 97.8377 108.018 99.338C105.404 101.216 102.794 103.099 100.186 104.985C97.9713 106.587 95.5671 107.041 92.9731 106.348C91.8754 106.053 90.6636 105.41 89.3384 104.419C86.9034 102.6 84.5996 100.93 82.4276 99.4089C80.5499 98.0901 78.6541 98.0983 76.7409 99.4335C74.6424 100.898 72.4409 102.494 70.1362 104.221C68.6377 105.344 67.3429 106.053 66.2522 106.348C63.6749 107.048 61.2635 106.595 59.0182 104.989C56.6133 103.269 54.2219 101.53 51.8442 99.7732C49.3797 97.9543 47.4662 98.0394 45.0405 99.7944C42.6167 101.549 40.1946 103.307 37.7743 105.067C35.657 106.605 33.281 107.028 30.647 106.337C29.5516 106.049 28.3423 105.409 27.0191 104.416C24.7311 102.698 22.2806 100.928 19.6676 99.1044C18.1846 98.0675 15.9543 98.3187 14.5496 99.338C11.832 101.309 9.10408 103.266 6.36588 105.208C5.00488 106.173 3.41639 106.633 1.59989 106.588C0.867396 106.572 0.351648 106.119 0.0528985 105.229C0.00540904 105.089 -0.0103848 104.941 0.00664866 104.794C0.118148 103.7 0.726146 103.127 1.83114 103.078C2.86264 103.033 3.73289 102.754 4.44163 102.24C7.04216 100.354 9.64565 98.4728 12.2521 96.5956C12.3161 96.5483 12.3291 96.4894 12.2911 96.4187C11.1381 94.3767 9.97388 92.3409 8.79862 90.3114C8.04462 89.0163 8.70987 87.5867 10.2569 87.4877C45.9482 85.2642 81.6389 83.0314 117.329 80.7894C117.793 80.7589 118.259 80.7566 118.723 80.7824C119.812 80.8426 120.459 82.0668 120.157 83.0505C120.057 83.3786 119.761 83.7631 119.267 84.2041C111.315 91.32 101.943 96.946 92.0626 101.652C91.8894 101.737 91.8801 101.837 92.0341 101.953ZM13.3299 90.9412C13.3239 90.943 13.3185 90.9461 13.3139 90.9503C13.3093 90.9545 13.3057 90.9596 13.3033 90.9653C13.3009 90.971 13.2998 90.9772 13.3001 90.9834C13.3003 90.9896 13.302 90.9956 13.3049 91.0011L15.5383 94.8831C15.5689 94.9358 15.6149 94.978 15.6703 95.0038C15.7256 95.0297 15.7876 95.0381 15.8478 95.0279C18.0861 94.6531 20.0978 95.0811 21.8833 96.3125C24.2473 97.9404 26.7476 99.7436 29.3843 101.723C31.3653 103.209 33.4425 103.733 35.548 102.25C37.6083 100.799 40.053 99.0313 42.8818 96.946C45.4353 95.0635 47.9747 94.3912 51.0407 95.3042C51.9202 95.5659 53.133 96.2735 54.679 97.4271C56.769 98.9822 58.8771 100.513 61.0027 102.02C63.2932 103.644 65.2707 103.404 67.4757 101.748C69.9395 99.8939 72.4391 98.0878 74.9732 96.3302C78.1386 94.1327 81.9831 94.5787 85.0384 96.8644C86.1216 97.6771 87.2171 98.4733 88.3246 99.2529C88.4294 99.3288 88.5706 99.3432 88.6921 99.2892C97.4856 95.2925 105.549 90.5096 112.883 84.94C113.194 84.704 113.155 84.5993 112.766 84.6252C79.6774 86.6985 46.8282 88.7547 14.2189 90.7927C13.9183 90.8123 13.6204 90.862 13.3299 90.9412ZM88.9861 74.4274C84.8429 58.3239 77.6689 42.8752 67.3407 30.2712C62.8997 24.8529 58.0957 20.36 52.9292 16.7933C51.631 15.8982 52.3565 13.701 53.9427 13.708C54.3482 13.708 54.7892 13.8152 55.266 14.0298C78.6044 24.5037 95.4273 44.4958 105.08 67.8636C106.15 70.4541 107.094 73.0944 107.908 75.7754C108.416 77.4421 106.855 78.9531 105.293 77.9657C101.274 75.4287 95.9216 75.2412 90.8961 75.8709C89.9571 75.9878 89.2066 75.2909 88.9861 74.4274ZM92.2511 72.1876C95.8433 71.8337 99.6241 72.0673 103.113 73.09C103.131 73.0946 103.149 73.0945 103.166 73.0896C103.184 73.0847 103.199 73.0752 103.212 73.0621C103.224 73.049 103.233 73.0328 103.237 73.0153C103.241 72.9977 103.24 72.9795 103.234 72.9624C96.2736 54.1698 84.3876 37.0934 68.0589 25.4095C67.7627 25.1993 67.7342 25.2314 67.9737 25.505C79.5754 38.767 87.4819 54.9874 92.0306 72.0354C92.0613 72.1486 92.1348 72.1993 92.2511 72.1876ZM30.5153 23.7145C35.5905 41.1413 34.3103 59.7111 25.1768 75.4324C25.1706 75.4424 25.1679 75.4542 25.1691 75.4658C25.1704 75.4775 25.1755 75.4884 25.1836 75.4969C25.1918 75.5054 25.2025 75.5109 25.2142 75.5127C25.2259 75.5144 25.2378 75.5123 25.2481 75.5066C33.5965 71.6544 42.4075 69.6999 51.6807 69.6435C60.8427 69.5868 69.7674 71.0965 78.4551 74.1727C78.4727 74.179 78.4916 74.1807 78.51 74.1776C78.5284 74.1744 78.5456 74.1665 78.56 74.1547C78.5744 74.1428 78.5854 74.1274 78.592 74.11C78.5985 74.0927 78.6004 74.0739 78.5974 74.0555C75.1119 52.2166 60.551 33.8379 43.7958 20.123C37.5883 15.0396 30.9315 10.4383 23.8253 6.31971C23.5953 6.18515 23.5421 6.23688 23.6653 6.47541C26.4443 11.8326 28.7276 17.579 30.5153 23.7145Z" fill="#5E3617"/>
</svg>
