<svg width="107" height="107" viewBox="0 0 107 107" fill="none" xmlns="http://www.w3.org/2000/svg">
<g clip-path="url(#clip0_26_144)">
<path fill-rule="evenodd" clip-rule="evenodd" d="M65.6445 0.242945L6.43819 4.61604C1.66171 5.02906 0 8.15025 0 11.891V76.7972C0 79.7108 1.03469 82.2039 3.531 85.5359L17.4485 103.633C19.7351 106.546 21.8141 107.171 26.1797 106.964L94.9347 102.801C100.748 102.387 102.414 99.6802 102.414 95.1049V22.0849C102.414 19.7202 101.48 19.0386 98.73 17.0205L79.3587 3.36307C74.7866 0.0385754 72.9173 -0.381935 65.6445 0.241875V0.242945ZM27.7344 20.8897C22.1201 21.2674 20.8468 21.353 17.6582 18.7604L9.55189 12.3125C8.72799 11.4779 9.14208 10.4368 11.2179 10.2293L68.1344 6.07017C72.9141 5.65287 75.4029 7.31886 77.2722 8.77406L87.0338 15.8468C87.4511 16.0575 88.489 17.302 87.2403 17.302L28.462 20.8404L27.7344 20.8897ZM21.1892 94.4811V32.4927C21.1892 29.7856 22.0206 28.537 24.5094 28.3272L92.02 24.3747C94.3098 24.1681 95.3445 25.6233 95.3445 28.3262V89.9015C95.3445 92.6086 94.9272 94.8984 91.1897 95.1049L26.5863 98.8499C22.8488 99.0564 21.1903 97.812 21.1903 94.4811H21.1892ZM84.9612 35.8162C85.3753 37.6887 84.9612 39.5612 83.0887 39.7752L79.975 40.3926V86.1597C77.2711 87.6149 74.7823 88.4463 72.7022 88.4463C69.3777 88.4463 68.5474 87.4051 66.0575 84.2872L45.6954 52.2514V83.2461L52.1368 84.7045C52.1368 84.7045 52.1368 88.4495 46.9398 88.4495L32.6125 89.2809C32.1952 88.4463 32.6125 86.3672 34.0645 85.9532L37.8063 84.9153V43.9343L32.6136 43.5137C32.1963 41.6412 33.2342 38.9374 36.1446 38.7276L51.5173 37.6929L72.7033 70.1428V41.4347L67.303 40.8141C66.8857 38.5211 68.5474 36.8551 70.6232 36.6518L84.9612 35.8162Z" fill="#5E3617"/>
</g>
<defs>
<clipPath id="clip0_26_144">
<rect width="107" height="107" fill="white"/>
</clipPath>
</defs>
</svg>
