<svg width="93" height="107" viewBox="0 0 93 107" fill="none" xmlns="http://www.w3.org/2000/svg">
<path fill-rule="evenodd" clip-rule="evenodd" d="M12.5228 0L42.9709 28.0723V0.0647754H48.898V28.1979L79.4825 0V32.0065H92.0395V78.173H79.5211V106.673L48.898 79.7506V106.982H42.9709V80.1945L12.5573 107V78.173H0V32.0065H12.5228V0ZM38.5026 37.8651H5.92704V72.3144H12.5499V61.4478L38.5026 37.8651ZM18.484 64.0473V93.927L42.9709 72.3452V41.7913L18.484 64.0473ZM49.0686 72.0598V41.7625L73.5626 64.0199V78.173H73.594V93.622L49.0686 72.0598ZM79.5211 72.3144H86.1124V37.8651H53.7795L79.5211 61.2037V72.3144ZM73.5555 32.0065V13.476L53.4563 32.0065H73.5555ZM38.5487 32.0065H18.4499V13.476L38.5487 32.0065Z" fill="#5E3617"/>
</svg>
