<svg width="107" height="107" viewBox="0 0 107 107" fill="none" xmlns="http://www.w3.org/2000/svg">
<path d="M6.6875 40.5708C6.6875 28.7106 6.6875 22.7804 8.99566 18.2504C11.026 14.2657 14.2657 11.026 18.2504 8.99566C22.7804 6.6875 28.7106 6.6875 40.5708 6.6875H66.4292C78.2894 6.6875 84.2196 6.6875 88.7496 8.99566C92.7343 11.026 95.974 14.2657 98.0043 18.2504C100.313 22.7804 100.312 28.7106 100.312 40.5708V66.4292C100.312 78.2894 100.313 84.2196 98.0043 88.7496C95.974 92.7343 92.7343 95.974 88.7496 98.0043C84.2196 100.313 78.2894 100.312 66.4292 100.312H40.5708C28.7106 100.312 22.7804 100.313 18.2504 98.0043C14.2657 95.974 11.026 92.7343 8.99566 88.7496C6.6875 84.2196 6.6875 78.2894 6.6875 66.4292V40.5708Z" fill="#5E3617"/>
<path d="M26.75 75.2887V34.1177C26.75 33.8376 26.867 33.6776 27.1401 33.6776C31.1714 33.6776 35.2009 33.4375 39.2333 33.4375C45.7765 33.4375 52.8613 35.6748 55.3446 42.5199C55.9298 44.2004 56.2419 45.9208 56.2419 47.7213C56.2419 51.1622 55.4617 54.003 53.9013 56.2436C49.5424 62.5025 41.9875 62.4052 35.2153 62.4052V75.2487C35.2682 75.6289 34.9442 75.8088 34.6301 75.8088H27.2181C26.906 75.8088 26.75 75.6488 26.75 75.2887ZM35.2543 41.3996V54.8432C37.9395 55.0399 40.7494 55.0613 43.3294 54.2031C46.1777 53.3814 47.7376 50.9158 47.7376 47.9614C47.8168 45.4439 46.445 43.0283 44.1096 42.1198C41.5607 41.06 38.0058 40.9965 35.2543 41.3996Z" fill="#FF8C33"/>
<path d="M80.5732 52.1872C79.3928 51.5651 78.1357 51.11 76.8362 50.8344C75.1662 50.4414 68.5796 49.0652 68.5771 52.5092C68.6356 54.432 71.6877 55.374 73.0363 55.9233C77.7705 57.5487 83.1279 60.454 83.0226 66.2945C83.1674 73.5652 76.1229 76.4717 70.0844 76.4724C66.9408 76.505 63.6659 76.0181 60.789 74.6687C60.5143 74.5233 60.3375 74.2124 60.3493 73.8957V66.9386C60.3184 66.6597 60.6177 66.4159 60.8518 66.6166C63.6707 68.3213 67.0119 69.149 70.2728 69.1932C71.7123 69.1932 74.5654 69.0537 74.5437 66.9386C74.5437 64.9089 71.1308 63.9757 69.7703 63.4601C67.7982 62.7561 65.9284 61.781 64.2119 60.5614C61.8132 58.8503 60.3084 56.107 60.3493 53.089C60.3353 46.243 66.8197 43.1702 72.6595 43.1687C75.3896 43.1462 78.3212 43.3484 80.8625 44.4571C81.228 44.5646 81.3037 44.9496 81.3022 45.2945V51.8006C81.3254 52.2045 80.8768 52.342 80.5732 52.1872Z" fill="#FF8C33"/>
</svg>
