<svg width="107" height="107" viewBox="0 0 107 107" fill="none" xmlns="http://www.w3.org/2000/svg">
<path d="M6.6875 40.5708C6.6875 28.7106 6.6875 22.7804 8.99566 18.2504C11.026 14.2657 14.2657 11.026 18.2504 8.99566C22.7804 6.6875 28.7106 6.6875 40.5708 6.6875H66.4292C78.2894 6.6875 84.2196 6.6875 88.7496 8.99566C92.7343 11.026 95.974 14.2657 98.0043 18.2504C100.313 22.7804 100.312 28.7106 100.312 40.5708V66.4292C100.312 78.2894 100.313 84.2196 98.0043 88.7496C95.974 92.7343 92.7343 95.974 88.7496 98.0043C84.2196 100.313 78.2894 100.312 66.4292 100.312H40.5708C28.7106 100.312 22.7804 100.313 18.2504 98.0043C14.2657 95.974 11.026 92.7343 8.99566 88.7496C6.6875 84.2196 6.6875 78.2894 6.6875 66.4292V40.5708Z" fill="#5E3617"/>
<path d="M26.75 72.8793V30.7891C26.75 30.5028 26.8674 30.3392 27.1413 30.3392C31.1846 30.3392 35.2261 30.0938 39.2706 30.0938C45.8333 30.0938 52.9392 32.381 55.43 39.3789C56.0169 41.0969 56.3299 42.8558 56.3299 44.6965C56.3299 48.2142 55.5474 51.1184 53.9823 53.409C49.6104 59.8076 42.0329 59.7082 35.2405 59.7082V72.8384C35.2936 73.2271 34.9686 73.411 34.6536 73.411H27.2195C26.9065 73.411 26.75 73.2474 26.75 72.8793ZM35.2797 38.2336V51.9774C37.9729 52.1785 40.7912 52.2003 43.3789 51.3229C46.2357 50.4829 47.8002 47.9623 47.8002 44.9419C47.8797 42.3682 46.5037 39.8987 44.1614 38.9699C41.6049 37.8864 38.0394 37.8215 35.2797 38.2336Z" fill="#FFC79C"/>
<path d="M61.6337 40.8336H68.5002C68.8789 40.8371 69.2188 41.1105 69.3191 41.4922C69.8223 42.6603 69.8843 44.0688 69.8861 45.3299C71.0636 43.8965 72.4836 42.7022 74.0751 41.8067C75.782 40.797 77.7171 40.2852 79.678 40.3249C80.0034 40.2763 80.2916 40.5774 80.245 40.9176V48.8861C80.245 49.1938 80.0343 49.3471 79.6152 49.3471C76.7088 49.1374 72.1839 49.8553 70.0721 52.2447V72.9641C70.0721 73.3592 69.9041 73.5568 69.5681 73.5568H62.2008C61.8389 73.6111 61.5196 73.2706 61.5707 72.8982V50.4008C61.5707 47.3862 61.6332 44.2809 61.1928 41.2947C61.125 41.0199 61.3767 40.7644 61.6337 40.8336Z" fill="#FFC79C"/>
</svg>
