<svg width="120" height="107" viewBox="0 0 120 107" fill="none" xmlns="http://www.w3.org/2000/svg">
<g clip-path="url(#clip0_26_116)">
<path d="M59.6824 63.7389C65.5581 63.7389 70.3213 58.9757 70.3213 53.1C70.3213 47.2243 65.5581 42.4611 59.6824 42.4611C53.8067 42.4611 49.0435 47.2243 49.0435 53.1C49.0435 58.9757 53.8067 63.7389 59.6824 63.7389Z" fill="#5E3617"/>
<path d="M59.6811 74.8966C91.2093 74.8966 116.768 65.1378 116.768 53.0998C116.768 41.0617 91.2093 31.303 59.6811 31.303C28.1529 31.303 2.59424 41.0617 2.59424 53.0998C2.59424 65.1378 28.1529 74.8966 59.6811 74.8966Z" stroke="#5E3617" stroke-width="5.18972"/>
<path d="M40.8044 63.9983C56.5685 91.3026 77.7992 108.558 88.2245 102.539C98.6497 96.5196 94.3217 69.5057 78.5576 42.2015C62.7935 14.8973 41.5628 -2.3578 31.1376 3.66122C20.7123 9.68025 25.0403 36.6941 40.8044 63.9983Z" stroke="#5E3617" stroke-width="5.18972"/>
<path d="M40.8045 42.2016C25.0403 69.5058 20.7123 96.5196 31.1376 102.539C41.5629 108.558 62.7935 91.3026 78.5576 63.9984C94.3217 36.6941 98.6497 9.68031 88.2245 3.66129C77.7992 -2.35774 56.5686 14.8973 40.8045 42.2016Z" stroke="#5E3617" stroke-width="5.18972"/>
</g>
<defs>
<clipPath id="clip0_26_116">
<rect width="119.363" height="106.2" fill="white"/>
</clipPath>
</defs>
</svg>
