<svg width="107" height="107" viewBox="0 0 107 107" fill="none" xmlns="http://www.w3.org/2000/svg">
<g clip-path="url(#clip0_26_48)">
<path d="M53.5005 0.000626964C23.9534 0.000626964 0 23.9534 0 53.5003C0 83.0481 23.9534 107 53.5005 107C83.0508 107 107.002 83.0489 107.002 53.5003C107.002 23.955 83.0508 0.00313482 53.4997 0.00313482L53.5005 0V0.000626964ZM78.0357 77.1632C77.0775 78.7346 75.0207 79.2338 73.4486 78.2683C60.8876 70.5955 45.0741 68.8582 26.451 73.113C24.6564 73.5214 22.8677 72.3972 22.4585 70.602C22.0474 68.8066 23.1678 67.0179 24.967 66.6095C45.3471 61.9533 62.8281 63.9579 76.9308 72.5761C78.5028 73.5408 79.0012 75.5912 78.0359 77.1634L78.0357 77.1632ZM84.5844 62.5961C83.3766 64.5583 80.8086 65.1777 78.8472 63.9708C64.4661 55.131 42.5454 52.5709 25.5352 57.7352C23.3291 58.4013 20.9993 57.1582 20.3301 54.9561C19.6656 52.7501 20.9095 50.4253 23.1116 49.7542C42.5414 43.8591 66.6962 46.7143 83.2111 56.8629C85.1725 58.0707 85.7921 60.6387 84.5852 62.5978V62.5969L84.5844 62.5961ZM85.147 47.4269C67.9031 37.1852 39.4549 36.244 22.992 41.2402C20.3485 42.0421 17.5527 40.5502 16.7516 37.9058C15.9508 35.2609 17.4419 32.4673 20.0871 31.664C38.9855 25.9268 70.4016 27.0351 90.2542 38.8208C92.6369 40.2323 93.4168 43.3027 92.0045 45.6775C90.5984 48.0553 87.5192 48.8395 85.1493 47.4269H85.147Z" fill="#5E3617"/>
</g>
<defs>
<clipPath id="clip0_26_48">
<rect width="107.002" height="107" fill="white"/>
</clipPath>
</defs>
</svg>
